<svg width="48" height="56" viewBox="0 0 48 56" fill="none" xmlns="http://www.w3.org/2000/svg">
<path d="M48 14.2108V33.9843C48 41.8323 41.6674 48.1951 33.8565 48.1951H32.426L25.1206 55.5305C24.8345 55.8179 24.4387 56 24 56C23.5947 56 23.2275 55.8515 22.9462 55.6023L22.8222 55.4778L22.8174 55.473L15.574 48.1951H14.1387C6.3326 48.1951 0 41.8323 0 33.9843V14.2108C0 6.36277 6.3326 0 14.1435 0H33.8565C41.6674 0 48 6.36277 48 14.2108Z" fill="#FFD666"/>
<path d="M11.1758 27.3927C9.7834 27.3927 8.98976 28.9869 9.79766 30.138C12.9389 34.6221 18.1332 37.5456 24.0023 37.5456C29.8714 37.5456 35.061 34.6173 38.2022 30.138C39.0101 28.9869 38.2165 27.3927 36.8241 27.3927H11.1758Z" fill="white"/>
<path d="M19.3308 20.6063H10.9287V16.3486C10.9287 13.9982 12.8106 12.0909 15.1298 12.0909C17.4489 12.0909 19.3308 13.9982 19.3308 16.3486V20.6063Z" fill="white"/>
<path d="M37.0766 20.6063H28.6746V16.3486C28.6746 13.9982 30.5565 12.0909 32.8756 12.0909C35.1947 12.0909 37.0766 13.9982 37.0766 16.3486V20.6063Z" fill="white"/>
</svg>
